<svg xmlns="http://www.w3.org/2000/svg" xmlns:xlink="http://www.w3.org/1999/xlink" width="700" zoomAndPan="magnify" viewBox="0 0 525 525.000007" height="700" preserveAspectRatio="xMidYMid meet" version="1.0"><defs><clipPath id="eb3d2ced90"><path d="M 41.085938 35 L 472 35 L 472 471.382812 L 41.085938 471.382812 Z M 41.085938 35 " clip-rule="nonzero"/></clipPath><clipPath id="86d1b3781b"><path d="M 41.085938 199 L 472 199 L 472 471.382812 L 41.085938 471.382812 Z M 41.085938 199 " clip-rule="nonzero"/></clipPath><clipPath id="c48da34fdb"><path d="M 44 298 L 469 298 L 469 471.382812 L 44 471.382812 Z M 44 298 " clip-rule="nonzero"/></clipPath><clipPath id="905047cc9c"><path d="M 18.769531 317.445312 L 208.90625 317.445312 L 208.90625 512.824219 L 18.769531 512.824219 Z M 18.769531 317.445312 " clip-rule="nonzero"/></clipPath></defs><g clipPath="url(#eb3d2ced90)"><path fill="#9fbe88" d="M 460.21875 181.058594 L 273.71875 41.011719 C 263.59375 33.402344 249.652344 33.402344 239.53125 41.011719 L 53.03125 181.058594 C 45.878906 186.429688 41.667969 194.847656 41.667969 203.785156 L 41.667969 442.957031 C 41.667969 458.660156 54.410156 471.390625 70.128906 471.390625 L 443.121094 471.390625 C 458.839844 471.390625 471.578125 458.660156 471.578125 442.957031 L 471.578125 203.785156 C 471.578125 194.847656 467.371094 186.429688 460.21875 181.058594 " fill-opacity="1" fill-rule="nonzero"/></g><path fill="#587744" d="M 299.898438 60.664062 L 213.355469 60.664062 L 101.230469 144.867188 L 82.0625 159.261719 L 101.230469 389.425781 L 421.144531 389.425781 L 430.273438 158.570312 L 299.898438 60.664062 " fill-opacity="1" fill-rule="nonzero"/><path fill="#515151" d="M 411.394531 56.105469 L 101.851562 56.105469 C 96.464844 56.105469 92.101562 60.464844 92.101562 65.847656 L 92.101562 375.125 C 92.101562 380.5 96.464844 384.863281 101.851562 384.863281 L 411.394531 384.863281 C 416.78125 384.863281 421.144531 380.5 421.144531 375.125 L 421.144531 65.847656 C 421.144531 60.464844 416.78125 56.105469 411.394531 56.105469 " fill-opacity="1" fill-rule="nonzero"/><path fill="#b9d8a2" d="M 204.9375 82.886719 L 134.886719 82.886719 C 129.785156 82.886719 125.644531 87.023438 125.644531 92.121094 L 125.644531 93.152344 C 125.644531 98.25 129.785156 102.382812 134.886719 102.382812 L 204.9375 102.382812 C 210.042969 102.382812 214.179688 98.25 214.179688 93.152344 L 214.179688 92.121094 C 214.179688 87.023438 210.042969 82.886719 204.9375 82.886719 " fill-opacity="1" fill-rule="nonzero"/><path fill="#b9d8a2" d="M 380.871094 126.320312 L 134.886719 126.320312 C 129.785156 126.320312 125.644531 130.457031 125.644531 135.554688 L 125.644531 136.578125 C 125.644531 141.675781 129.785156 145.816406 134.886719 145.816406 L 380.871094 145.816406 C 385.972656 145.816406 390.113281 141.675781 390.113281 136.578125 L 390.113281 135.554688 C 390.113281 130.457031 385.972656 126.320312 380.871094 126.320312 " fill-opacity="1" fill-rule="nonzero"/><path fill="#b9d8a2" d="M 380.871094 177.621094 L 134.886719 177.621094 C 129.785156 177.621094 125.644531 181.75 125.644531 186.851562 L 125.644531 187.878906 C 125.644531 192.976562 129.785156 197.113281 134.886719 197.113281 L 380.871094 197.113281 C 385.972656 197.113281 390.113281 192.976562 390.113281 187.878906 L 390.113281 186.851562 C 390.113281 181.75 385.972656 177.621094 380.871094 177.621094 " fill-opacity="1" fill-rule="nonzero"/><path fill="#b9d8a2" d="M 380.871094 228.917969 L 134.886719 228.917969 C 129.785156 228.917969 125.644531 233.050781 125.644531 238.148438 L 125.644531 239.179688 C 125.644531 244.277344 129.785156 248.414062 134.886719 248.414062 L 380.871094 248.414062 C 385.972656 248.414062 390.113281 244.277344 390.113281 239.179688 L 390.113281 238.148438 C 390.113281 233.050781 385.972656 228.917969 380.871094 228.917969 " fill-opacity="1" fill-rule="nonzero"/><path fill="#b9d8a2" d="M 293.59375 280.21875 L 134.886719 280.21875 C 129.785156 280.21875 125.644531 284.351562 125.644531 289.449219 L 125.644531 290.472656 C 125.644531 295.574219 129.785156 299.707031 134.886719 299.707031 L 293.59375 299.707031 C 298.695312 299.707031 302.832031 295.574219 302.832031 290.472656 L 302.832031 289.449219 C 302.832031 284.351562 298.695312 280.21875 293.59375 280.21875 " fill-opacity="1" fill-rule="nonzero"/><g clipPath="url(#86d1b3781b)"><path fill="#519032" d="M 469.257812 199.136719 C 467.320312 203.660156 464.261719 207.6875 460.21875 210.722656 L 273.71875 350.777344 C 263.59375 358.382812 249.652344 358.382812 239.53125 350.777344 L 53.03125 210.722656 C 48.988281 207.6875 45.925781 203.660156 43.996094 199.136719 C 42.511719 202.417969 41.667969 206.042969 41.667969 209.882812 L 41.667969 445.167969 C 41.667969 459.648438 53.421875 471.390625 67.914062 471.390625 L 445.335938 471.390625 C 459.832031 471.390625 471.578125 459.648438 471.578125 445.167969 L 471.578125 209.882812 C 471.578125 206.042969 470.730469 202.417969 469.257812 199.136719 " fill-opacity="1" fill-rule="nonzero"/></g><g clipPath="url(#c48da34fdb)"><path fill="#587744" d="M 460.21875 444.089844 L 273.71875 304.042969 C 263.59375 296.441406 249.652344 296.441406 239.53125 304.042969 L 53.03125 444.089844 C 49.21875 446.953125 46.28125 450.699219 44.332031 454.902344 C 48.851562 464.628906 58.691406 471.390625 70.128906 471.390625 L 443.121094 471.390625 C 454.558594 471.390625 464.398438 464.628906 468.921875 454.902344 C 466.972656 450.699219 464.023438 446.953125 460.21875 444.089844 " fill-opacity="1" fill-rule="nonzero"/></g><g clipPath="url(#905047cc9c)"><path fill="#e99b23" d="M 133.082031 386.820312 C 130.824219 386.253906 127.746094 385.695312 124.371094 385.695312 C 105.835938 385.695312 91.234375 403.941406 91.234375 425.5625 C 91.234375 436.222656 96.011719 442.964844 105.273438 442.964844 C 115.671875 442.964844 126.625 429.769531 129.132812 413.492188 Z M 158.074219 502.761719 C 141.222656 510.332031 126.625 512.863281 106.402344 512.863281 C 59.769531 512.863281 18.773438 479.453125 18.773438 424.4375 C 18.773438 367.171875 60.621094 317.492188 123.8125 317.492188 C 173.519531 317.492188 208.910156 351.445312 208.910156 398.617188 C 208.910156 439.871094 185.875 465.699219 155.550781 465.699219 C 142.339844 465.699219 132.796875 458.683594 131.394531 444.085938 L 130.824219 444.085938 C 121.84375 458.125 109.488281 465.699219 94.328125 465.699219 C 76.34375 465.699219 62.875 451.945312 62.875 428.925781 C 62.875 394.402344 88.425781 363.523438 128.863281 363.523438 C 141.222656 363.523438 155.261719 366.605469 162.285156 370.257812 L 153.863281 422.476562 C 151.046875 439.035156 153.015625 446.613281 160.875 446.898438 C 172.949219 447.449219 188.117188 432.015625 188.117188 399.457031 C 188.117188 362.683594 164.535156 334.613281 121 334.613281 C 77.75 334.613281 40.402344 368.007812 40.402344 421.914062 C 40.402344 469.070312 70.171875 495.453125 112.007812 495.453125 C 126.335938 495.453125 141.792969 492.363281 153.015625 486.753906 L 158.074219 502.761719 " fill-opacity="1" fill-rule="nonzero"/></g><path fill="#e99b23" d="M 485.65625 24.605469 L 359.316406 14.832031 C 340.160156 13.351562 322.34375 27.585938 319.527344 46.625 L 276.40625 337.726562 C 273.585938 356.765625 286.828125 373.402344 305.980469 374.882812 L 432.320312 384.65625 C 451.476562 386.140625 469.292969 371.90625 472.113281 352.867188 L 515.230469 61.765625 C 518.054688 42.726562 504.8125 26.089844 485.65625 24.605469 " fill-opacity="1" fill-rule="nonzero"/><path fill="#3f434c" d="M 484.429688 32.898438 L 466.246094 31.492188 L 465.238281 33.355469 C 461.921875 39.492188 455.226562 43.210938 448.4375 42.683594 L 388.902344 38.082031 C 382.875 37.613281 377.832031 33.875 375.796875 28.359375 L 374.324219 24.378906 L 358.085938 23.125 C 343.539062 22 330.007812 32.808594 327.863281 47.269531 L 285.214844 335.179688 L 464.246094 349.03125 L 506.894531 61.121094 C 509.035156 46.660156 498.976562 34.023438 484.429688 32.898438 " fill-opacity="1" fill-rule="nonzero"/><path fill="#324553" d="M 323.816406 74.59375 C 323.816406 74.59375 371.386719 75.480469 385.722656 103.980469 C 400.058594 132.480469 418.222656 166.675781 437.082031 183.042969 C 455.941406 199.410156 484.753906 210.582031 484.753906 210.582031 L 476.320312 267.503906 C 476.320312 267.503906 403.902344 235.628906 380.472656 215.371094 C 357.042969 195.113281 358.894531 152.214844 346.839844 138.703125 C 334.78125 125.191406 317.078125 120.097656 317.078125 120.097656 L 323.816406 74.59375 " fill-opacity="1" fill-rule="nonzero"/><path fill="#9fbe88" d="M 422.007812 244.292969 C 416.964844 235.578125 401.546875 226.921875 394.738281 227.15625 C 390.265625 227.3125 388.832031 230.289062 387.109375 232.199219 C 386.207031 233.195312 385.230469 233.910156 383.699219 233.757812 C 379.238281 233.316406 372.390625 215.183594 370.632812 207.246094 C 368.878906 199.304688 362.132812 181.15625 362.308594 177.59375 C 362.484375 174.03125 365.789062 175.402344 370.527344 175.238281 C 371.742188 175.199219 373.257812 174.792969 374.839844 174.21875 C 379.421875 172.546875 384.558594 169.425781 384.558594 169.425781 C 393.710938 159.628906 386.648438 135.28125 378.753906 129.921875 C 373.246094 126.183594 367.71875 126.058594 362.023438 128.234375 C 359.558594 129.171875 357.0625 130.539062 354.527344 132.234375 C 346.121094 137.855469 344.507812 142.652344 344.289062 170.804688 C 344.070312 198.960938 346.273438 206.589844 352.722656 220.894531 C 364.820312 247.730469 377.640625 255.890625 388.382812 266.484375 C 399.121094 277.078125 411.097656 271.925781 417.152344 266.976562 C 417.488281 266.703125 417.816406 266.414062 418.140625 266.113281 C 423.605469 261.027344 426.769531 252.527344 422.007812 244.292969 " fill-opacity="1" fill-rule="nonzero"/><path fill="#ffffff" d="M 440.78125 173.199219 C 438.21875 167.097656 439.273438 160.367188 442.960938 155.40625 L 436.339844 150.464844 C 435.027344 152.230469 433.929688 154.164062 433.078125 156.25 C 430.417969 162.757812 430.453125 169.910156 433.175781 176.390625 C 435.898438 182.871094 440.980469 187.902344 447.492188 190.5625 C 449.578125 191.414062 451.730469 191.988281 453.90625 192.285156 L 455.019531 184.101562 C 448.890625 183.261719 443.34375 179.300781 440.78125 173.199219 " fill-opacity="1" fill-rule="nonzero"/><path fill="#ffffff" d="M 426.507812 179.1875 C 421.75 167.859375 423.707031 155.367188 430.558594 146.15625 L 423.933594 141.21875 C 421.832031 144.035156 420.09375 147.105469 418.746094 150.398438 C 416.695312 155.421875 415.644531 160.707031 415.632812 166.109375 C 415.617188 171.707031 416.714844 177.179688 418.902344 182.378906 C 421.085938 187.578125 424.226562 192.195312 428.234375 196.105469 C 432.101562 199.878906 436.613281 202.832031 441.636719 204.882812 C 444.933594 206.230469 448.34375 207.140625 451.824219 207.613281 L 452.9375 199.429688 C 441.558594 197.867188 431.265625 190.515625 426.507812 179.1875 " fill-opacity="1" fill-rule="nonzero"/><path fill="#ffffff" d="M 413.457031 184.664062 C 406.6875 168.558594 409.46875 150.792969 419.210938 137.695312 L 412.582031 132.753906 C 409.769531 136.523438 407.445312 140.636719 405.640625 145.050781 C 402.894531 151.773438 401.488281 158.847656 401.472656 166.078125 C 401.449219 173.570312 402.925781 180.894531 405.847656 187.855469 C 408.773438 194.816406 412.972656 200.996094 418.339844 206.230469 C 423.519531 211.277344 429.554688 215.234375 436.28125 217.980469 C 440.695312 219.78125 445.261719 221.003906 449.921875 221.640625 L 451.035156 213.445312 C 434.859375 211.226562 420.21875 200.769531 413.457031 184.664062 " fill-opacity="1" fill-rule="nonzero"/><path fill="#ffffff" d="M 375.085938 360.644531 C 375.085938 365.679688 371 369.761719 365.960938 369.761719 C 360.921875 369.761719 356.835938 365.679688 356.835938 360.644531 C 356.835938 355.609375 360.921875 351.523438 365.960938 351.523438 C 371 351.523438 375.085938 355.609375 375.085938 360.644531 " fill-opacity="1" fill-rule="nonzero"/></svg>