<svg width="30" height="31" viewBox="0 0 30 31" fill="none" xmlns="http://www.w3.org/2000/svg">
<g clipPath="url(#clip0_6075_62215)">
<circle cx="15" cy="15" r="15" transform="matrix(-1 0 0 1 30 0.209961)" fill="#03011C"/>
<path d="M19.9288 20.5467L20.4795 16.6177H17.0348V14.0681C17.0348 12.9931 17.516 11.9454 19.0589 11.9454H20.625V8.60043C20.625 8.60043 19.2037 8.33496 17.8447 8.33496C15.0078 8.33496 13.1535 10.2166 13.1535 13.6232V16.6177H10V20.5467H13.1535V30.0909C13.7955 30.201 14.4444 30.2101 15.0942 30.21C15.744 30.2102 16.3928 30.1777 17.0348 30.0675V20.5467H19.9288Z" fill="white"/>
</g>
<defs>
<clipPath id="clip0_6075_62215">
<rect width="30" height="30" fill="white" transform="translate(0 0.209961)"/>
</clipPath>
</defs>
</svg>
