<svg width="30" height="31" viewBox="0 0 30 31" fill="none" xmlns="http://www.w3.org/2000/svg">
<g clipPath="url(#clip0_6075_62214)">
<circle cx="15" cy="15" r="15" transform="matrix(-1 0 0 1 30 0.209961)" fill="#03011C"/>
<path d="M23.125 8.34087C23.0455 8.33299 22.9654 8.33299 22.8859 8.34087H6.55904C6.4544 8.34242 6.35046 8.35752 6.25 8.38576L14.6758 16.46L23.125 8.34087Z" fill="white"/>
<path d="M24.3047 8.95996L15.7734 17.3771C15.5539 17.5934 15.2569 17.7148 14.9473 17.7148C14.6377 17.7148 14.3407 17.5934 14.1211 17.3771L5.66602 9.02382C5.64002 9.11846 5.62624 9.21599 5.625 9.31406V20.924C5.625 21.2319 5.74847 21.5272 5.96823 21.7449C6.188 21.9626 6.48607 22.085 6.79688 22.085H23.2031C23.5139 22.085 23.812 21.9626 24.0318 21.7449C24.2515 21.5272 24.375 21.2319 24.375 20.924V9.31406C24.3703 9.19312 24.3466 9.07364 24.3047 8.95996ZM7.59961 20.924H6.78516V20.0939L11.0449 15.9085L11.8711 16.727L7.59961 20.924ZM23.1914 20.924H22.3711L18.0996 16.727L18.9258 15.9085L23.1855 20.0939L23.1914 20.924Z" fill="white"/>
</g>
<defs>
<clipPath id="clip0_6075_62214">
<rect width="30" height="30" fill="white" transform="translate(0 0.209961)"/>
</clipPath>
</defs>
</svg>
