<svg width="30" height="31" viewBox="0 0 30 31" fill="none" xmlns="http://www.w3.org/2000/svg">
<g clipPath="url(#clip0_6075_62216)">
<circle cx="15" cy="15" r="15" transform="matrix(-1 0 0 1 30 0.209961)" fill="#03011C"/>
<path d="M21.9584 11.7579C21.9691 11.9071 21.9691 12.0563 21.9691 12.2069C21.9691 16.7943 18.3575 22.085 11.7535 22.085V22.0821C9.80252 22.0849 7.89199 21.5446 6.25 20.5258C6.53369 20.5588 6.81875 20.5753 7.10458 20.5759C8.72155 20.5771 10.292 20.0527 11.5636 19.0869C10.8144 19.0732 10.0883 18.8335 9.48696 18.4012C8.88557 17.969 8.43891 17.3658 8.20942 16.676C8.74732 16.7763 9.30186 16.7559 9.83031 16.6162C8.15536 16.289 6.95029 14.866 6.95029 13.2133V13.1693C7.44962 13.4382 8.00844 13.5872 8.57974 13.6038C7.00221 12.5843 6.5159 10.5549 7.46849 8.9682C8.36986 10.0408 9.49449 10.918 10.7693 11.5428C12.0442 12.1677 13.4407 12.5263 14.8682 12.5953C14.7258 12.0029 14.7469 11.3847 14.9291 10.8026C15.1114 10.2205 15.4485 9.69491 15.9068 9.27834C17.3529 7.9639 19.6272 8.03131 20.9866 9.42885C21.7906 9.27535 22.5616 8.99033 23.2665 8.58606C22.9985 9.3899 22.4376 10.0722 21.6882 10.5061C22.3999 10.425 23.095 10.2408 23.75 9.95963C23.2682 10.6574 22.6615 11.2663 21.9584 11.7579Z" fill="white"/>
</g>
<defs>
<clipPath id="clip0_6075_62216">
<rect width="30" height="30" fill="white" transform="translate(0 0.209961)"/>
</clipPath>
</defs>
</svg>
