<svg width="30" height="31" viewBox="0 0 30 31" fill="none" xmlns="http://www.w3.org/2000/svg">
<g clipPath="url(#clip0_6075_62217)">
<path d="M0.640234 15.1462C0.639531 17.6865 1.30328 20.1669 2.56539 22.3531L0.519531 29.8229L8.16391 27.8185C10.2782 28.9696 12.6472 29.5727 15.0545 29.5728H15.0609C23.0079 29.5728 29.477 23.1061 29.4804 15.1576C29.482 11.306 27.9834 7.68419 25.2606 4.95935C22.5384 2.23474 18.9179 0.733447 15.0603 0.731689C7.11227 0.731689 0.643633 7.1981 0.640352 15.1462" fill="#03011C"/>
<path d="M0.125391 15.1415C0.12457 17.7732 0.812109 20.3423 2.11922 22.6068L0 30.3444L7.91848 28.2682C10.1003 29.4577 12.5568 30.0849 15.0564 30.0859H15.0628C23.295 30.0859 29.9965 23.3865 30 15.1535C30.0014 11.1635 28.4489 7.41148 25.6289 4.58902C22.8086 1.76691 19.0586 0.211602 15.0628 0.209961C6.82922 0.209961 0.128672 6.9084 0.125391 15.1415ZM4.84102 22.2168L4.54535 21.7475C3.30246 19.7712 2.64645 17.4875 2.64738 15.1425C2.65008 8.2993 8.2193 2.73184 15.0675 2.73184C18.3839 2.73324 21.5006 4.02605 23.8448 6.37168C26.1889 8.71754 27.4788 11.8359 27.478 15.1525C27.475 21.9957 21.9056 27.5639 15.0628 27.5639H15.0579C12.8298 27.5627 10.6446 26.9643 8.73891 25.8336L8.28539 25.5646L3.58641 26.7966L4.84102 22.2167V22.2168Z" fill="url(#paint0_linear_6075_62217)"/>
<path d="M11.928 10.1076C11.6975 9.61065 11.4551 9.60062 11.236 9.5919C11.0565 9.58441 10.8514 9.58497 10.6465 9.58497C10.4414 9.58497 10.1082 9.65984 9.82651 9.9583C9.54454 10.257 8.75 10.979 8.75 12.4473C8.75 13.9157 9.8521 15.3347 10.0057 15.534C10.1596 15.733 12.1333 18.8426 15.2593 20.0389C17.8573 21.033 18.386 20.8353 18.9499 20.7854C19.5138 20.7358 20.7695 20.0637 21.0257 19.3668C21.2821 18.67 21.2821 18.0727 21.2052 17.9479C21.1284 17.8235 20.9233 17.7488 20.6157 17.5996C20.308 17.4504 18.796 16.7283 18.5142 16.6287C18.2322 16.5292 18.0272 16.4795 17.8221 16.7784C17.617 17.0768 17.028 17.7488 16.8485 17.9479C16.6692 18.1474 16.4897 18.1722 16.1822 18.0229C15.8745 17.8732 14.884 17.5584 13.7089 16.5418C12.7946 15.7507 12.1774 14.7738 11.998 14.4749C11.8185 14.1766 11.9787 14.0148 12.133 13.8661C12.2711 13.7324 12.4406 13.5176 12.5945 13.3434C12.7479 13.1691 12.7991 13.0448 12.9016 12.8457C13.0043 12.6465 12.9529 12.4722 12.8761 12.3229C12.7991 12.1737 12.2014 10.6977 11.928 10.1076Z" fill="white"/>
</g>
<defs>
<linearGradient id="paint0_linear_6075_62217" x1="1500" y1="3013.65" x2="1500" y2="0.209961" gradientUnits="userSpaceOnUse">
<stop stopColor="#F9F9F9"/>
<stop offset="1" stopColor="white"/>
</linearGradient>
<clipPath id="clip0_6075_62217">
<rect width="30" height="30.2344" fill="white" transform="translate(0 0.209961)"/>
</clipPath>
</defs>
</svg>
